<svg id="ab3c0511-8151-4852-8f8e-81d7f9e69f78" data-name="Layer 1" xmlns="http://www.w3.org/2000/svg" xmlns:xlink="http://www.w3.org/1999/xlink" viewBox="0 0 129.19 139.91"><defs><linearGradient id="b0e0d3bb-ed90-4960-b454-1225bafedd4a" x1="32.11" y1="66.82" x2="50.6" y2="66.82" gradientUnits="userSpaceOnUse"><stop offset="0" stop-color="#4962f2"/><stop offset="1" stop-color="#2947f3"/></linearGradient><linearGradient id="b9a0c28a-a4a4-4e37-a37e-1ed06489bac0" x1="66.25" y1="66.82" x2="84.73" y2="66.82" xlink:href="#b0e0d3bb-ed90-4960-b454-1225bafedd4a"/><linearGradient id="e40be866-8950-40fa-b6fe-5d55ee486868" x1="49.18" y1="62.9" x2="67.66" y2="62.9" xlink:href="#b0e0d3bb-ed90-4960-b454-1225bafedd4a"/><linearGradient id="a9e2389f-8f11-469a-bec1-a25dec618bd3" x1="70.1" y1="89.02" x2="89.59" y2="89.02" xlink:href="#b0e0d3bb-ed90-4960-b454-1225bafedd4a"/><linearGradient id="ea1510b7-5f49-42ef-8901-0969ac32e794" x1="27.26" y1="89.02" x2="46.75" y2="89.02" xlink:href="#b0e0d3bb-ed90-4960-b454-1225bafedd4a"/><linearGradient id="bc5dbdf6-a513-43b9-9ffb-c51cc6f9e0af" x1="50.93" y1="89.02" x2="65.9" y2="89.02" xlink:href="#b0e0d3bb-ed90-4960-b454-1225bafedd4a"/></defs><polygon points="46.74 59.77 46.74 83.11 43.77 83.11 38.94 83.11 35.96 83.11 35.96 59.77 32.11 59.77 35.96 55.92 41.35 50.52 46.74 55.92 50.6 59.77 46.74 59.77" fill="url(#b0e0d3bb-ed90-4960-b454-1225bafedd4a)"/><polygon points="80.88 59.77 80.88 83.11 77.91 83.11 73.08 83.11 70.1 83.11 70.1 59.77 66.25 59.77 70.1 55.92 75.49 50.52 80.88 55.92 84.73 59.77 80.88 59.77" fill="url(#b9a0c28a-a4a4-4e37-a37e-1ed06489bac0)"/><polygon points="63.81 51.94 63.81 83.11 60.84 83.11 56.01 83.11 53.03 83.11 53.03 51.94 49.18 51.94 58.42 42.7 67.67 51.94 63.81 51.94" fill="url(#e40be866-8950-40fa-b6fe-5d55ee486868)"/><polygon points="80.88 84.66 70.1 84.66 74.63 93.37 89.59 93.37 80.88 84.66" fill="url(#a9e2389f-8f11-469a-bec1-a25dec618bd3)"/><polygon points="35.96 84.66 46.74 84.66 42.22 93.37 27.26 93.37 35.96 84.66" fill="url(#ea1510b7-5f49-42ef-8901-0969ac32e794)"/><polygon points="52.99 84.66 63.81 84.66 65.9 93.37 50.93 93.37 52.99 84.66" fill="url(#bc5dbdf6-a513-43b9-9ffb-c51cc6f9e0af)"/></svg>