<svg width="470" height="339" viewBox="0 0 470 339" fill="none" xmlns="http://www.w3.org/2000/svg">
<path d="M381.51 204.096L372.734 148.189L316.83 157.045L333.356 169.065L282.908 233.908H196.879L113.459 338.367H164.776L215.223 271.152H304.337L365.617 192.472L381.51 204.096Z" fill="#5284FF"/>
<path d="M283.541 145.738H237.442C236.177 145.738 235.149 146.766 235.149 148.031V213.111C235.149 214.376 236.177 215.404 237.442 215.404H283.541C284.806 215.404 285.834 214.376 285.834 213.111V148.031C285.834 146.845 284.806 145.738 283.541 145.738Z" fill="#E6EBFF"/>
<path d="M269.969 172.538C273.993 167.15 272.888 159.519 267.499 155.494C262.111 151.47 254.481 152.575 250.456 157.964C246.432 163.352 247.538 170.983 252.926 175.008C258.314 179.033 265.945 177.927 269.969 172.538Z" fill="#5284FF"/>
<path d="M258.396 171.358L252.861 165.823L254.127 164.637L258.238 168.749L266.145 159.022L267.569 160.129L258.396 171.358Z" fill="white"/>
<path d="M278.797 186.225H241.712V189.309H278.797V186.225Z" fill="#6C90FE"/>
<path d="M278.797 194.844H241.712V197.928H278.797V194.844Z" fill="#6C90FE"/>
<path d="M271.048 203.542H241.712V206.626H271.048V203.542Z" fill="#6C90FE"/>
<path d="M405.074 188.202C407.446 187.411 410.134 187.648 412.19 189.15C413.772 190.337 415.037 192.155 414.562 195.16C413.455 201.724 424.842 196.267 420.73 206.073C416.618 215.878 425.474 218.804 423.893 226.554C422.311 234.303 415.669 235.885 419.307 242.448C422.944 249.011 428.558 248.141 424.051 259.291C419.544 270.441 420.651 277.004 423.181 284.991C425.711 292.978 420.888 300.015 407.92 299.066C394.953 298.118 390.841 294.48 391.315 286.572C391.79 278.586 392.897 281.353 388.152 273.129C383.408 264.905 389.971 261.98 392.501 257.393C395.032 252.807 390.446 248.299 389.734 242.132C389.022 235.964 395.427 231.456 395.664 228.214C395.901 225.051 389.971 218.251 391.552 213.664C393.134 209.078 399.301 207.022 399.539 202.91C399.697 199.351 393.766 191.918 405.074 188.202Z" fill="#97BCF2"/>
<path d="M407.288 199.272L409.739 303.732H404.836L407.288 199.272Z" fill="#6085E2"/>
<path d="M422.786 303.732H391.711V311.244H422.786V303.732Z" fill="#E6EBFF"/>
<path d="M417.093 338.763H396.455L393.846 311.165H420.572L417.093 338.763Z" fill="#E6EBFF"/>
<path d="M420.572 311.165H393.846L419.939 316.384L420.572 311.165Z" fill="#E6EBFF"/>
<path d="M215.777 229.954C214.037 232.88 213.563 233.987 212.772 234.066C211.191 234.145 212.456 230.903 213.088 229.242C213.168 229.005 213.247 228.847 213.326 228.61C213.879 227.107 212.061 222.679 211.665 223.707C211.27 224.735 210.558 225.288 211.191 227.186C211.902 229.084 210.558 230.586 209.926 230.507C209.293 230.428 208.74 225.921 208.581 222.916C208.423 219.911 208.819 219.279 208.898 217.934C208.898 217.855 208.898 217.776 208.898 217.697C208.898 216.827 208.74 214.692 208.581 212.873C208.423 210.976 208.186 209.315 208.186 209.315L215.935 212.478C215.935 212.478 215.935 212.636 215.935 212.794C215.935 213.585 215.935 215.799 215.935 217.618C215.935 218.567 215.935 219.437 215.935 219.99C216.093 221.888 217.596 226.949 215.777 229.954Z" fill="#FACBC7"/>
<path d="M216.093 216.036C214.116 216.036 210.795 216.195 208.977 216.274C208.898 215.325 208.819 214.06 208.661 212.873H216.093C216.093 213.506 216.093 214.692 216.093 216.036Z" fill="#F5948E"/>
<path d="M165.646 338.367H147.538C147.538 338.367 147.143 337.656 148.092 335.363C149.041 333.069 150.701 329.985 150.701 329.985C150.701 326.032 151.492 319.626 151.492 319.626L162.404 320.575L161.534 329.432C164.855 332.041 165.646 338.367 165.646 338.367Z" fill="#4F4F9E"/>
<path d="M211.191 338.446H178.139L180.116 323.343L192.53 324.292L192.214 327.929C192.214 327.929 200.991 330.46 206.526 332.437C211.982 334.413 211.191 338.446 211.191 338.446Z" fill="#4F4F9E"/>
<path d="M192.135 327.929L192.451 324.292L180.037 323.343L179.088 330.381C186.521 332.358 192.135 327.929 192.135 327.929Z" fill="#FACBC7"/>
<path d="M161.534 329.432L150.78 329.985C150.78 326.032 151.571 319.626 151.571 319.626L162.483 320.575L161.534 329.432Z" fill="#FACBC7"/>
<path d="M207 281.353C203.046 292.819 193.4 324.055 193.4 324.055C188.893 326.19 185.097 326.031 182.646 325.399C180.511 324.845 179.325 324.055 179.325 324.055C179.325 324.055 180.669 310.137 182.646 297.88C184.623 285.544 189.446 269.966 189.446 269.966L182.013 237.94C182.013 237.94 178.139 248.537 175.213 258.342C175.213 258.342 170.311 273.841 170.311 275.897C170.311 282.935 162.957 324.687 162.957 324.687C157.501 326.111 150.148 323.422 150.148 323.422C150.148 323.422 149.436 296.852 149.673 275.423C149.91 260.556 153.073 231.931 154.971 215.957C155.841 208.92 156.394 204.333 156.394 204.333L185.888 206.547L197.986 207.417L204.707 206.864L208.819 209.157L207.316 214.455C207.316 214.455 207.316 214.85 207.395 215.562C207.633 220.306 208.423 238.889 210.005 251.621C211.823 266.408 210.954 269.966 207 281.353Z" fill="#393D67"/>
<path d="M208.898 209.157L208.186 211.766C208.028 211.687 207.87 211.608 207.712 211.529C203.916 218.646 191.028 217.223 184.227 215.246C177.427 213.269 170.706 216.669 164.618 216.353C160.269 216.115 157.106 212.399 155.604 210.343C156.078 206.626 156.315 204.412 156.315 204.412L185.809 206.626L197.907 207.496L204.628 206.943L208.898 209.157Z" fill="#1F2556"/>
<path d="M218.386 176.498C217.596 192.551 216.093 214.455 216.093 214.455H207.474V211.213C205.498 212.478 203.046 213.111 200.2 213.427C192.135 214.218 181.144 211.924 170.39 213.111C155.92 214.692 154.971 207.417 154.971 207.417C155.604 204.096 155.446 192.155 155.366 186.066C155.287 183.931 155.287 182.508 155.287 182.508L146.985 132.136C149.911 129.922 153.706 128.183 158.371 126.048C162.404 124.229 170.785 121.224 171.497 120.987C176.478 119.405 178.613 119.01 178.613 119.01C183.516 118.773 185.097 118.693 188.814 119.721C189.683 119.959 201.228 125.02 207.158 129.052C217.121 135.695 219.256 158.785 218.386 176.498Z" fill="#6578C4"/>
<path d="M216.251 211.924C212.061 212.004 209.214 211.687 207.474 211.371V214.455H216.093C216.093 214.455 216.172 213.506 216.251 211.924Z" fill="#4F4F9E"/>
<path d="M188.735 119.642C185.018 118.694 183.437 118.773 178.534 118.931C178.534 118.931 176.399 119.405 171.418 120.908C170.943 121.066 167.939 122.094 164.618 123.359C167.148 125.889 172.683 130.001 181.697 129.211C188.576 128.578 192.925 125.415 195.456 122.568C191.976 120.987 189.13 119.722 188.735 119.642Z" fill="#4F4F9E"/>
<path opacity="0.36" d="M157.185 148.742C157.185 148.742 160.664 161.79 173.553 169.856C159.636 176.024 150.859 171.833 150.859 171.833L157.185 148.742Z" fill="#443F90"/>
<path d="M207.158 153.408C207 153.408 206.842 153.25 206.842 153.092C206.842 149.533 207 145.975 207.553 142.495C207.553 142.337 207.712 142.258 207.87 142.258C208.028 142.258 208.107 142.416 208.107 142.575C207.633 146.054 207.395 149.533 207.395 153.092C207.395 153.25 207.316 153.408 207.158 153.408Z" fill="#4F4F9E"/>
<path d="M207.474 211.529C207.395 211.529 207.316 211.45 207.237 211.371C207.158 211.213 207.158 211.055 207.316 210.975C208.74 209.948 208.186 200.933 207.554 192.155C207.237 186.778 206.842 181.164 206.842 176.419C206.842 174.838 206.842 173.019 206.921 171.121C206.921 170.963 207.079 170.805 207.237 170.805C207.395 170.805 207.554 170.963 207.554 171.121C207.474 173.019 207.474 174.838 207.474 176.419C207.474 181.085 207.87 186.699 208.186 192.076C208.898 203.305 209.293 210.264 207.633 211.371C207.554 211.45 207.554 211.529 207.474 211.529Z" fill="#4F4F9E"/>
<path d="M208.107 148.742H185.809C184.623 148.742 183.674 149.691 183.674 150.878V184.327C183.674 185.513 184.623 186.462 185.809 186.462H208.107C209.293 186.462 210.242 185.513 210.242 184.327V150.878C210.242 149.691 209.293 148.742 208.107 148.742Z" fill="white"/>
<path d="M187.548 119.089C183.832 118.14 183.516 118.773 178.613 119.01C178.613 119.01 178.218 118.298 173.237 119.88C172.92 119.959 169.362 121.777 167.069 122.568C169.916 124.703 173.869 126.522 179.009 126.522C186.6 126.522 190.632 123.913 192.767 121.382C190.632 120.354 187.786 119.168 187.548 119.089Z" fill="#FACBC7"/>
<path d="M174.818 108.888C174.818 108.888 165.488 107.465 160.664 98.8453C155.841 90.3051 158.767 84.2953 165.646 84.2162C165.646 84.2162 163.115 80.1833 167.069 76.6249C171.023 73.1456 172.762 76.6249 177.744 75.4388C182.725 74.2526 182.567 71.564 186.758 73.1455C190.949 74.648 190.079 77.6529 192.451 79.7089C194.902 81.7649 205.102 85.8768 195.218 94.4171C185.255 103.036 174.818 108.888 174.818 108.888Z" fill="#342460"/>
<path d="M194.665 174.759C193.874 175.233 190.474 176.815 187.39 177.684C184.307 178.554 182.093 178.238 180.353 178.238C178.613 178.159 174.264 179.661 174.264 179.661C169.204 172.465 173.474 169.856 173.474 169.856L177.585 169.935C179.562 165.507 183.753 165.19 183.753 165.19V169.065C183.753 169.065 189.367 167.167 190.711 166.772C192.056 166.376 192.609 166.693 192.767 167.088C193.004 167.484 192.846 168.353 192.846 168.353C194.19 168.037 194.823 168.195 195.06 168.986C195.218 169.777 194.428 170.488 194.428 170.488C194.428 170.488 195.535 170.568 195.693 171.279C195.772 171.991 194.744 172.703 194.744 172.703C195.693 172.624 195.535 174.284 194.665 174.759Z" fill="#FACBC7"/>
<path d="M186.441 171.2C186.362 171.2 186.204 171.121 186.204 171.042C186.125 170.884 186.204 170.726 186.362 170.647C186.362 170.647 187.707 170.093 192.846 168.116C193.004 168.037 193.162 168.116 193.242 168.274C193.321 168.432 193.242 168.591 193.083 168.67C188.023 170.647 186.6 171.2 186.6 171.2C186.521 171.2 186.441 171.2 186.441 171.2Z" fill="#F5948E"/>
<path d="M187.074 173.572C186.916 173.572 186.837 173.493 186.758 173.335C186.679 173.177 186.758 173.019 186.916 172.94C186.995 172.94 191.423 171.358 194.27 170.172C194.428 170.093 194.586 170.172 194.665 170.33C194.744 170.488 194.665 170.647 194.507 170.726C191.66 171.912 187.153 173.493 187.153 173.493C187.153 173.572 187.074 173.572 187.074 173.572Z" fill="#F5948E"/>
<path d="M188.655 175.549C188.576 175.549 188.418 175.47 188.418 175.391C188.339 175.233 188.418 175.075 188.576 174.996C188.576 174.996 191.265 173.889 194.586 172.386C194.744 172.307 194.902 172.386 194.981 172.544C195.06 172.703 194.981 172.861 194.823 172.94C191.502 174.442 188.814 175.549 188.814 175.549C188.735 175.549 188.735 175.549 188.655 175.549Z" fill="#F5948E"/>
<path d="M197.432 169.54C199.223 169.54 200.674 168.088 200.674 166.297C200.674 164.507 199.223 163.055 197.432 163.055C195.642 163.055 194.19 164.507 194.19 166.297C194.19 168.088 195.642 169.54 197.432 169.54Z" fill="#E6E6E6"/>
<path d="M193.4 105.33C191.502 112.921 187.865 114.502 187.865 114.502V123.596H172.367C172.367 123.596 172.05 114.819 171.813 111.26C171.576 107.702 169.916 103.036 169.916 103.036C169.916 103.036 165.725 103.59 165.092 98.2127C164.46 92.8356 168.492 94.0217 170.627 99.0035L172.604 99.557C172.604 99.557 171.892 96.0777 171.576 92.8356C171.497 91.8866 171.418 90.9377 171.418 90.147C171.418 90.147 173.078 94.1799 177.665 92.6774C182.251 91.175 180.827 89.0399 184.465 89.2771C188.102 89.5144 189.288 93.8636 193.4 89.2771C193.4 89.1981 195.297 97.8174 193.4 105.33Z" fill="#FACBC7"/>
<path d="M183.753 166.535V169.065L182.251 169.54C182.488 168.353 183.2 167.167 183.753 166.535Z" fill="#F5948E"/>
<path d="M187.944 114.502V119.247C187.944 119.247 175.292 119.959 173.395 105.567C173.395 105.567 179.958 117.507 187.944 114.502Z" fill="#F5948E"/>
<path d="M174.264 179.661C159.715 182.429 150.148 183.378 145.008 179.187C139.868 174.996 140.185 165.665 140.185 158.627C140.185 151.589 138.682 139.095 146.985 132.216C158.45 135.616 161.376 139.886 161.376 139.886L156.473 167.484L173.553 169.935C173.474 169.856 172.05 172.861 174.264 179.661Z" fill="#6578C4"/>
<path d="M173.474 169.856L170.548 169.46C170.074 171.912 169.678 175.945 171.813 180.136C172.604 179.978 173.395 179.819 174.185 179.661C172.05 172.861 173.474 169.856 173.474 169.856Z" fill="#4F4F9E"/>
<path d="M155.604 182.35C150.859 182.35 147.38 181.48 144.771 179.424C144.613 179.345 144.613 179.108 144.692 179.029C144.771 178.871 145.008 178.871 145.087 178.95C150.069 183.062 159.478 182.192 174.106 179.345C174.264 179.345 174.423 179.424 174.423 179.582C174.423 179.74 174.344 179.899 174.185 179.899C166.595 181.401 160.427 182.35 155.604 182.35Z" fill="#4F4F9E"/>
<path d="M119.704 305.472C119.704 305.472 127.453 289.656 129.588 280.009C131.723 270.362 133.304 260.873 131.723 261.901C130.141 263.008 116.225 285.307 113.853 293.452C111.401 301.597 119.704 305.472 119.704 305.472Z" fill="#6085E2"/>
<path d="M113.378 301.518C113.378 301.518 88.9451 260.398 84.5171 261.822C80.1682 263.324 104.522 308.477 104.522 308.477L113.378 301.518Z" fill="#6085E2"/>
<path d="M114.643 305.472C114.643 305.472 119.388 290.605 117.569 275.818C115.75 261.031 109.899 247.034 108.792 248.537C107.685 250.039 102.466 268.227 103.099 276.925C103.731 285.624 105.55 304.681 105.55 304.681L114.643 305.472Z" fill="#97BCF2"/>
<path d="M126.82 302.704C126.82 302.704 147.774 285.07 145.244 282.777C142.714 280.563 117.648 295.271 114.327 299.699C110.927 304.048 126.82 302.704 126.82 302.704Z" fill="#97BCF2"/>
<path d="M108.08 300.569C107.448 299.936 91.0801 287.442 84.359 284.437C77.6379 281.432 75.1867 281.907 75.3449 283.251C75.5821 284.675 83.1729 296.694 93.7685 300.569C104.364 304.444 108.08 300.569 108.08 300.569Z" fill="#97BCF2"/>
<path d="M128.165 338.367H92.4243C90.4475 332.595 89.0242 318.361 88.1544 308.477C87.68 302.388 87.3637 297.88 87.3637 297.88H133.146C133.146 297.88 132.909 302.388 132.355 308.477C131.644 318.44 130.141 332.595 128.165 338.367Z" fill="#E6EBFF"/>
<path d="M132.118 312.193L88.2335 308.477H132.434C132.355 309.663 132.197 310.928 132.118 312.193Z" fill="#E6EBFF"/>
<path d="M87.4428 297.88C87.4428 297.88 87.68 302.388 88.2335 308.477H132.434C132.909 302.388 133.225 297.88 133.225 297.88H87.4428Z" fill="#E6EBFF"/>
<path d="M444.208 27.1386V99.2843C444.208 102.276 441.787 104.697 438.796 104.697H339.949C336.958 104.697 334.536 102.276 334.536 99.2843V27.1386C334.536 24.1474 336.958 21.7259 339.949 21.7259H438.796C441.787 21.7259 444.208 24.1474 444.208 27.1386Z" fill="#E5EBFE"/>
<path d="M360.316 72.7193H351.628V96.8628H360.316V72.7193Z" fill="#5284FF"/>
<path d="M382.535 83.6871H373.847V96.8628H382.535V83.6871Z" fill="#5284FF"/>
<path d="M404.826 78.9154H396.137V96.8628H404.826V78.9154Z" fill="#5284FF"/>
<path d="M427.116 65.6685H418.428V96.8628H427.116V65.6685Z" fill="#5284FF"/>
<path d="M436.089 96.0082H342.584V97.6462H436.089V96.0082Z" fill="#5284FF"/>
<path d="M378.191 79.4139L355.83 65.3836H342.584V64.6002H356.043L378.262 78.4881L400.339 71.01L422.63 56.6236L436.018 53.7748L436.232 54.5582L422.914 57.407L400.695 71.7222L400.624 71.7934L378.191 79.4139Z" fill="white"/>
<path d="M357.183 64.9563C357.183 65.6685 356.613 66.2383 355.901 66.2383C355.189 66.2383 354.619 65.6685 354.619 64.9563C354.619 64.2441 355.189 63.6744 355.901 63.6744C356.613 63.6744 357.183 64.3154 357.183 64.9563Z" fill="white"/>
<path d="M379.473 78.9154C379.473 79.6276 378.903 80.1974 378.191 80.1974C377.479 80.1974 376.909 79.6276 376.909 78.9154C376.909 78.2032 377.479 77.6335 378.191 77.6335C378.903 77.7047 379.473 78.2744 379.473 78.9154Z" fill="white"/>
<path d="M401.764 71.3661C401.764 72.0783 401.194 72.6481 400.482 72.6481C399.769 72.6481 399.2 72.0783 399.2 71.3661C399.2 70.6539 399.769 70.0842 400.482 70.0842C401.194 70.1554 401.764 70.6539 401.764 71.3661Z" fill="white"/>
<path d="M422.772 58.3329C423.48 58.3329 424.054 57.759 424.054 57.0509C424.054 56.3429 423.48 55.769 422.772 55.769C422.064 55.769 421.49 56.3429 421.49 57.0509C421.49 57.759 422.064 58.3329 422.772 58.3329Z" fill="white"/>
<path d="M438.796 21.7259H339.949C336.958 21.7259 334.536 24.1474 334.536 27.1386V29.9162H444.208V27.1386C444.208 24.1474 441.787 21.7259 438.796 21.7259Z" fill="#6C90FE"/>
<path d="M395.141 37.1806H341.302V40.9553H395.141V37.1806Z" fill="#5284FF"/>
<path d="M386.096 47.3651H341.302V51.1397H386.096V47.3651Z" fill="#5284FF"/>
<path d="M344.15 25.7854C344.15 26.5688 343.509 27.2098 342.726 27.2098C341.943 27.2098 341.302 26.5688 341.302 25.7854C341.302 25.002 341.943 24.361 342.726 24.361C343.509 24.361 344.15 25.002 344.15 25.7854Z" fill="white"/>
<path d="M352.554 25.7854C352.554 26.5688 351.913 27.2098 351.129 27.2098C350.346 27.2098 349.705 26.5688 349.705 25.7854C349.705 25.002 350.346 24.361 351.129 24.361C351.913 24.361 352.554 25.002 352.554 25.7854Z" fill="white"/>
<path d="M360.957 25.7854C360.957 26.5688 360.316 27.2098 359.533 27.2098C358.749 27.2098 358.109 26.5688 358.109 25.7854C358.109 25.002 358.749 24.361 359.533 24.361C360.316 24.361 360.957 25.002 360.957 25.7854Z" fill="white"/>
<path d="M310.038 38.605H240.318C239.179 38.605 238.182 39.5308 238.182 40.7416V61.1104C238.182 62.25 239.108 63.247 240.318 63.247H310.038C311.178 63.247 312.175 62.3212 312.175 61.1104V40.7416C312.175 39.6021 311.249 38.605 310.038 38.605Z" fill="#6C90FE"/>
<path d="M306.691 44.3738H261.683V48.7182H306.691V44.3738Z" fill="white"/>
<path d="M297.932 53.1339H261.683V57.4783H297.932V53.1339Z" fill="white"/>
<path d="M252.096 57.5018C255.728 56.6222 257.959 52.965 257.079 49.3333C256.199 45.7017 252.543 43.4707 248.911 44.3503C245.28 45.2299 243.049 48.887 243.928 52.5187C244.808 56.1504 248.465 58.3814 252.096 57.5018Z" fill="white"/>
<path d="M249.79 54.2021L246.585 51.567L247.44 50.4987L249.576 52.2792L253.422 47.6499L254.49 48.5758L249.79 54.2021Z" fill="#6C90FE"/>
</svg>
