<svg width="212" height="56" viewBox="0 0 212 56" fill="none" xmlns="http://www.w3.org/2000/svg">
<path d="M105.7 54.6C90.6 54.6 78.4 42.3 78.4 27.3C78.4 12.2 90.6 0 105.7 0C120.7 0 133 12.2 133 27.3C133 42.3 120.7 54.6 105.7 54.6ZM105.7 2.9C92.3 2.9 81.3 13.9 81.3 27.3C81.3 40.7 92.2 51.7 105.7 51.7C119.1 51.7 130.1 40.8 130.1 27.3C130.1 13.9 119.1 2.9 105.7 2.9Z" fill="#36BF98"/>
<path fill-rule="evenodd" clip-rule="evenodd" d="M101.4 27.4V43.2C101.4 43.4 101.6 43.6 101.8 43.6H107.7C107.9 43.6 108.1 43.4 108.1 43.2V27.2H112.4C112.6 27.2 112.8 27 112.8 26.8L113.2 22C113.2 21.8 113 21.6 112.8 21.6H108.1V18.2C108.1 17.4 108.8 16.7 109.6 16.7H112.9C113.1 16.7 113.3 16.5 113.3 16.3V11.5C113.3 11.3 113.1 11.1 112.9 11.1H107.4C104.1 11.1 101.5 13.7 101.5 17V21.7H98.6001C98.4001 21.7 98.2001 21.9 98.2001 22.1V26.9C98.2001 27.1 98.4001 27.3 98.6001 27.3H101.4V27.4Z" fill="#36BF98"/>
<path d="M184.1 55.2C169.1 55.2 157 43 157 28.1C157 13.1 169.2 1 184.1 1C199 1 211.2 13.2 211.2 28.1C211.2 43 199 55.2 184.1 55.2ZM184.1 3.6C170.6 3.6 159.6 14.6 159.6 28.1C159.6 41.6 170.6 52.6 184.1 52.6C197.6 52.6 208.6 41.6 208.6 28.1C208.6 14.6 197.6 3.6 184.1 3.6ZM193.2 17.1C192.1 17.1 191.2 18 191.2 19.1C191.2 20.2 192.1 21.1 193.2 21.1C194.3 21.1 195.2 20.2 195.2 19.1C195.2 18 194.3 17.1 193.2 17.1ZM184.3 19.7C179.7 19.7 175.9 23.5 175.9 28.1C175.9 32.7 179.7 36.5 184.3 36.5C188.9 36.5 192.7 32.7 192.7 28.1C192.7 23.5 189 19.7 184.3 19.7ZM184.3 33.5C181.3 33.5 178.9 31.1 178.9 28.1C178.9 25.1 181.3 22.7 184.3 22.7C187.3 22.7 189.7 25.1 189.7 28.1C189.7 31.1 187.3 33.5 184.3 33.5ZM201.3 21.1C201.3 15.4 196.7 10.8 191 10.8H177.4C171.7 10.8 167.1 15.4 167.1 21.1V34.7C167.1 40.4 171.7 45 177.4 45H191C196.7 45 201.3 40.4 201.3 34.7V21.1ZM198.1 34.7C198.1 38.6 194.9 41.8 191 41.8H177.4C173.5 41.8 170.3 38.6 170.3 34.7V21.1C170.3 17.2 173.5 14 177.4 14H191C194.9 14 198.1 17.2 198.1 21.1V34.7Z" fill="#36BF98"/>
<path d="M27.2 55.4C12.2 55.4 0 43.2 0 28.2C0 13.2 12.2 1 27.2 1C42.2 1 54.4 13.2 54.4 28.2C54.4 43.2 42.2 55.4 27.2 55.4ZM27.2 3.9C13.8 3.9 2.9 14.8 2.9 28.2C2.9 41.6 13.8 52.5 27.2 52.5C40.6 52.5 51.5 41.6 51.5 28.2C51.5 14.8 40.6 3.9 27.2 3.9Z" fill="#36BF98"/>
<path d="M42.6 30.3V40.5C42.6 40.8 42.4 41 42.1 41H36.9C36.6 41 36.4 40.8 36.4 40.5V31C36.4 28.5 35.5 26.8 33.3 26.8C31.6 26.8 30.6 27.9 30.1 29.1C29.9 29.5 29.9 30 29.9 30.6V40.5C29.9 40.8 29.7 41 29.4 41H24.1C23.8 41 23.6 40.8 23.6 40.5C23.6 38 23.7 25.8 23.6 22.9C23.6 22.6 23.8 22.4 24.1 22.4H29.3C29.6 22.4 29.8 22.6 29.8 22.9V25.1C29.8 25.1 29.8 25.1 29.8 25.2V25.1C30.6 23.8 32.1 22 35.4 22C39.6 21.9 42.6 24.6 42.6 30.3ZM14.7 40.9H19.9C20.2 40.9 20.4 40.7 20.4 40.4V22.8C20.4 22.5 20.2 22.3 19.9 22.3H14.6C14.3 22.3 14.1 22.5 14.1 22.8V40.4C14.2 40.7 14.4 40.9 14.7 40.9Z" fill="#36BF98"/>
<path d="M17.1 20C18.9226 20 20.4 18.5225 20.4 16.7C20.4 14.8775 18.9226 13.4 17.1 13.4C15.2775 13.4 13.8 14.8775 13.8 16.7C13.8 18.5225 15.2775 20 17.1 20Z" fill="#36BF98"/>
</svg>
