<svg width="203" height="308" viewBox="0 0 203 308" fill="none" xmlns="http://www.w3.org/2000/svg">
<g clip-path="url(#clip0)">
<path d="M83.3089 164.089L78.3266 177.773C77.3996 180.324 75.4299 181.947 72.8808 182.411L6.02522 192.5C1.73812 193.196 -0.810971 197.602 0.347705 202.357L23.753 298.839C24.9116 303.593 29.3146 307.072 33.7176 306.377L192.804 282.256C197.091 281.56 199.64 277.154 198.481 272.399L170.325 156.203C169.167 151.449 164.764 147.97 160.361 148.666L88.8705 159.45C86.2056 159.914 84.2358 161.654 83.3089 164.089Z" fill="#407BFF"/>
<path opacity="0.3" d="M83.3089 164.089L78.3266 177.773C77.3996 180.324 75.4299 181.947 72.8808 182.411L6.02522 192.5C1.73812 193.196 -0.810971 197.602 0.347705 202.357L23.753 298.839C24.9116 303.593 29.3146 307.072 33.7176 306.377L192.804 282.256C197.091 281.56 199.64 277.154 198.481 272.399L170.325 156.203C169.167 151.449 164.764 147.97 160.361 148.666L88.8705 159.45C86.2056 159.914 84.2358 161.654 83.3089 164.089Z" fill="black"/>
<path d="M49.0121 23.1928C50.6343 23.1928 52.1406 23.3087 53.6468 23.4247C63.9591 9.27711 80.644 0 99.4145 0C123.283 0 143.676 14.8434 151.903 35.9488C170.21 39.0798 184.114 54.9669 184.114 74.2169C184.114 95.6702 166.734 113.065 145.298 113.065H49.0121C24.2165 112.949 4.17139 92.7711 4.17139 68.0708C4.17139 43.2545 24.2165 23.1928 49.0121 23.1928Z" fill="#407BFF"/>
<path d="M53.1833 97.1777V209.083H135.102V121.53L110.77 97.1777H53.1833Z" fill="#407BFF"/>
<path opacity="0.6" d="M53.1833 97.1777V209.083H135.102V121.53L110.77 97.1777H53.1833Z" fill="white"/>
<path opacity="0.4" d="M110.77 121.53V97.1777L135.102 121.53H110.77Z" fill="#407BFF"/>
<path d="M55.8367 306.06L49.9937 306.943L50.1666 308.089L56.0097 307.206L55.8367 306.06Z" fill="#407BFF"/>
<path d="M82.5203 301.97L62.2415 305.037L62.4146 306.183L82.6934 303.117L82.5203 301.97Z" fill="#407BFF"/>
<path d="M112.508 175.105L104.976 187.745C103.586 190.065 101.268 191.688 98.8352 192.036L31.9796 202.125C27.6925 202.821 24.3323 206.879 24.564 211.286L28.5035 299.187C28.7353 303.593 32.3272 306.608 36.6143 305.913L195.7 281.792C199.988 281.096 203.348 277.038 203.116 272.631L198.481 166.64C198.25 162.233 194.658 159.218 190.371 159.914L118.88 170.699C116.215 171.279 113.898 172.786 112.508 175.105Z" fill="#407BFF"/>
<path d="M114.825 80.9428C114.477 80.9428 114.13 80.8268 113.782 80.4789C113.203 79.8991 113.203 78.9714 113.782 78.3916C124.673 67.491 124.673 49.8644 113.782 38.9638C108.568 33.7455 101.5 30.8464 94.0844 30.8464C86.6689 30.8464 79.601 33.7455 74.387 38.9638C69.1729 44.1822 66.2762 51.256 66.2762 58.6777C66.2762 66.0994 69.1729 73.1732 74.387 78.3916C74.9663 78.9714 74.9663 79.8991 74.387 80.4789C73.8076 81.0587 72.8807 81.0587 72.3013 80.4789C66.508 74.6807 63.2637 66.9111 63.2637 58.7937C63.2637 50.6762 66.6238 42.9066 72.4172 37.1084C78.2106 31.3102 85.9737 28.0632 94.0844 28.0632C102.311 28.0632 110.074 31.3102 115.868 37.1084C127.802 49.0527 127.802 68.6506 115.868 80.5949C115.636 80.8268 115.172 80.9428 114.825 80.9428Z" fill="white"/>
<path d="M106.482 89.6401V57.5181C106.482 54.619 104.165 52.2997 101.268 52.2997H87.0166C84.1199 52.2997 81.8026 54.619 81.8026 57.5181V89.6401H76.4727L94.0845 104.831L111.696 89.6401H106.482Z" fill="white"/>
</g>
<defs>
<clipPath id="clip0">
<rect width="203" height="308" fill="white"/>
</clipPath>
</defs>
</svg>
