<svg width="1023" height="261" viewBox="0 0 1023 261" fill="none" xmlns="http://www.w3.org/2000/svg">
<path d="M1.6402 161.86C16.1676 169.677 30.2264 178.828 44.9882 188.361C97.943 222.488 157.693 261 265.946 261C271.335 261 277.193 260.809 282.816 260.619C396.224 256.615 463.472 199.228 534.937 138.219C604.528 78.9258 676.462 17.5353 796.197 5.90543C917.102 -5.72445 1010.12 33.1689 1068 69.0118C1067.77 67.2959 1067.53 65.58 1067.3 63.8641C1008.48 28.2119 915.696 -9.34687 795.494 2.09235C673.885 13.9129 601.482 75.6847 531.423 135.55C460.894 195.796 394.115 252.802 282.582 256.615C165.191 260.809 102.864 220.581 47.7999 185.12C31.6323 174.634 15.9333 164.72 0 156.141C0.70294 158.238 1.17158 160.144 1.6402 161.86Z" fill="#D7ECF9" fill-opacity="0.7"/>
</svg>
