<svg width="1023" height="145" viewBox="0 0 1023 145" fill="none" xmlns="http://www.w3.org/2000/svg">
<path d="M1128.18 140.56C1081.72 133.901 979.739 110.29 874.142 26.947C807.566 -25.7228 764.925 8.38138 715.646 47.9342C654.299 97.1734 584.706 152.87 444.111 79.6167C327.451 18.6731 220.245 62.0601 133.957 96.7698C80.0526 118.564 37.4115 135.717 8.85004 120.179C6.83866 118.968 4.82729 117.757 2.81592 116.143C1.81023 117.152 0.804549 117.959 0 118.968C2.21251 120.784 4.42502 122.398 7.0398 123.609C37.2104 140.157 80.656 122.6 135.566 100.402C221.05 65.8944 327.25 22.911 442.301 83.0474C585.108 157.713 658.925 98.586 718.261 50.9612C768.143 11.0048 807.767 -20.6778 871.93 29.974C981.348 116.344 1086.95 138.946 1132 145C1130.39 143.587 1129.39 142.175 1128.18 140.56Z" fill="#D7ECF9" fill-opacity="0.7"/>
</svg>
